<svg width="27" height="27" viewBox="0 0 27 27" fill="none" xmlns="http://www.w3.org/2000/svg">
<g clip-path="url(#clip0_3822_3906)">
<path d="M6.27812 16.6951C6.49113 17.051 6.86859 17.2482 7.25496 17.2482C7.45379 17.2482 7.65534 17.1962 7.83933 17.0862L11.7993 14.7137C12.2206 14.9958 12.7268 15.1612 13.2725 15.1612C14.7394 15.1612 15.9293 13.971 15.9293 12.5045C15.9293 11.0375 14.7395 9.84727 13.2725 9.84727C11.8055 9.84727 10.6165 11.0375 10.6165 12.5045C10.6165 12.5898 10.6342 12.6703 10.6422 12.754L6.66892 15.1344C6.13035 15.4574 5.95527 16.1561 6.27812 16.6951Z" fill="black"/>
<path d="M15.8121 21.5532C15.0026 21.781 14.1533 21.9113 13.2725 21.9113C8.08574 21.9113 3.86611 17.6912 3.86611 12.5045C3.86611 7.31769 8.08574 3.09762 13.2725 3.09762C18.4593 3.09762 22.6789 7.31769 22.6789 12.5045C22.6789 12.7698 22.6605 13.0303 22.6391 13.2899C23.1489 13.3884 23.624 13.626 24.0148 13.9864C24.3808 14.3257 24.8798 14.8255 25.4113 15.452C25.6409 14.5052 25.7765 13.5213 25.7765 12.5045C25.7765 5.60959 20.1674 0 13.2725 0C6.37764 0 0.768433 5.60959 0.768433 12.5045C0.768433 19.3993 6.37758 25.0089 13.2725 25.0089C14.2018 25.0089 15.1047 24.8994 15.9768 24.7062C15.8025 24.1254 15.7067 23.5116 15.7067 22.8754C15.7067 22.4231 15.748 21.9835 15.8121 21.5532Z" fill="black"/>
<path d="M22.4676 15.6553C22.3656 15.5607 22.2354 15.5132 22.105 15.5132C21.9766 15.5132 21.8473 15.5598 21.7451 15.6535C20.7393 16.5776 17.9822 19.4253 17.9822 22.8754C17.9822 25.1532 19.8284 27 22.1068 27C24.3843 27 26.2316 25.1532 26.2316 22.8754C26.2316 19.453 23.4718 16.5859 22.4676 15.6553Z" fill="black"/>
</g>
<defs>
<clipPath id="clip0_3822_3906">
<rect width="27" height="27" fill="white"/>
</clipPath>
</defs>
</svg>
