<svg width="50" height="50" viewBox="0 0 50 50" fill="none" xmlns="http://www.w3.org/2000/svg">
<g clip-path="url(#clip0_3822_3818)">
<path d="M42.5 19.8914C42.5 10.2421 34.65 2.39143 25 2.39143C15.35 2.39143 7.5 10.2421 7.5 19.8914C7.5 26.6 11.2957 32.4357 16.8507 35.3714C16.855 35.4086 16.8536 35.445 16.8614 35.4821L18.9329 45.8671C19.065 46.5371 19.6521 46.845 20.3343 46.845H22.7507C22.9986 47.5593 23.4536 47.5593 23.9814 47.5593H25.41C25.9371 47.5593 26.3929 47.5593 26.6407 46.845H29.0486C29.7329 46.845 30.3214 46.5143 30.4514 45.8421L32.4314 35.7179C38.375 32.9179 42.5 26.885 42.5 19.8914ZM27.8693 43.9879H21.5086L20.0314 36.6443C21.6079 37.1114 23.2743 37.3786 25.0007 37.3786C26.475 37.3786 27.9071 37.175 29.2764 36.83L27.8693 43.9879ZM22.9407 34.3086L20.9593 24.7664C20.9914 24.7686 21.0229 24.775 21.0557 24.775C21.6764 24.775 22.2136 24.34 22.5536 23.5729C22.5736 23.5493 22.5921 23.525 22.6086 23.4986C22.6414 23.4479 22.6707 23.4107 22.6943 23.3857C22.7171 23.4114 22.7464 23.4471 22.7786 23.4979C22.7993 23.53 22.8236 23.5607 22.8507 23.5886C23.1921 24.3414 23.725 24.7671 24.3386 24.7671C24.6807 24.7671 25.32 24.6257 25.7821 23.6829C25.7871 23.6743 25.7921 23.665 25.7964 23.6557C25.8121 23.6221 25.8279 23.5871 25.8429 23.5521C25.8571 23.535 25.8693 23.5164 25.8821 23.4979C25.915 23.4471 25.9443 23.41 25.9679 23.385C25.9914 23.41 26.0207 23.4471 26.0536 23.4979C26.0686 23.5221 26.0864 23.5443 26.105 23.5664C26.4443 24.3379 26.9829 24.7743 27.6064 24.7743C28.2279 24.7743 28.7657 24.3393 29.105 23.5714C29.1243 23.5479 29.1436 23.5236 29.16 23.4971C29.1921 23.4471 29.2214 23.41 29.2443 23.385C29.2629 23.4043 29.2871 23.4379 29.3107 23.4721L27.0607 34.3079C27.0564 34.3293 27.0629 34.3507 27.0607 34.3721C26.3864 34.4671 25.7021 34.5336 25.0014 34.5336C24.3007 34.5336 23.6171 34.4671 22.9429 34.3721C22.9386 34.3514 22.9457 34.3307 22.9407 34.3086ZM28.5664 34.0786L30.7979 23.3336C30.8664 23.0064 30.6907 22.6957 30.4014 22.5571C29.7614 21.7486 28.7186 21.735 28.0829 22.5479C27.9786 22.6286 27.8957 22.7386 27.8486 22.8679C27.7593 23.11 27.665 23.2464 27.605 23.3121C27.5443 23.2471 27.45 23.1107 27.3607 22.8679C27.3193 22.7543 27.245 22.6564 27.1514 22.5793C26.7229 22.0114 26.2329 21.9214 25.9664 21.9214C25.7029 21.9214 25.2179 22.01 24.7914 22.5657C24.6986 22.6429 24.6257 22.7443 24.5807 22.8629C24.5579 22.9243 24.5329 22.9836 24.5121 23.0264C24.5093 23.0321 24.5057 23.0386 24.5029 23.0443C24.4393 23.1764 24.3793 23.2579 24.3379 23.3029C24.2779 23.2379 24.1843 23.1029 24.0957 22.8643C24.0514 22.7457 23.97 22.6436 23.8686 22.5664C23.5486 22.1486 23.1364 21.9207 22.6929 21.9207C22.4321 21.9207 21.955 22.0071 21.5329 22.5471C21.4286 22.6279 21.3457 22.7371 21.2986 22.8664C21.2093 23.1093 21.1143 23.2457 21.0543 23.3114C20.9943 23.2464 20.8993 23.11 20.81 22.8664C20.7064 22.5857 20.4029 22.3986 20.1036 22.3986C19.9829 22.3986 19.8764 22.4357 19.7793 22.4886C19.7714 22.49 19.7643 22.4871 19.7564 22.4886C19.37 22.5686 19.1214 22.9471 19.2021 23.3329L21.4336 34.0779C15.0736 32.4843 10.3571 26.7464 10.3571 19.8914C10.3571 11.8036 16.9129 5.24857 25 5.24857C33.0871 5.24857 39.6429 11.8036 39.6429 19.8914C39.6429 26.7464 34.9264 32.4843 28.5664 34.0786Z" fill="black"/>
<path d="M23.4586 8.38714C23.18 8.38714 22.9036 8.39857 22.63 8.42071C22.2364 8.45286 21.9443 8.79786 21.9764 9.19143C22.0078 9.56429 22.3193 9.84714 22.6878 9.84714C22.7071 9.84714 22.7278 9.84643 22.7471 9.845C22.9814 9.82571 23.2193 9.81571 23.4586 9.81571C23.8536 9.81571 24.1728 9.49571 24.1728 9.10143C24.1728 8.70714 23.8536 8.38714 23.4586 8.38714Z" fill="black"/>
<path d="M19.3072 9.29071C15.7772 10.9114 13.4957 14.4671 13.4957 18.35C13.4957 18.7443 13.815 19.0643 14.21 19.0643C14.605 19.0643 14.9243 18.7443 14.9243 18.35C14.9243 15.0236 16.8786 11.9771 19.9029 10.5886C20.2614 10.4243 20.4193 10 20.2543 9.64143C20.0893 9.28357 19.6643 9.12643 19.3072 9.29071Z" fill="black"/>
<path d="M21.125 39.1714C21.0765 39.5629 21.3536 39.92 21.745 39.9686L26.9536 40.62C26.9836 40.6236 27.0136 40.6257 27.0429 40.6257C27.3979 40.6257 27.7057 40.3614 27.7507 40C27.7993 39.6086 27.5222 39.2514 27.1307 39.2029L21.9222 38.5514C21.5307 38.5057 21.175 38.7807 21.125 39.1714Z" fill="black"/>
<path d="M26.7593 42.0121L22.4114 41.4693C22.02 41.4243 21.6636 41.6979 21.6143 42.0893C21.5657 42.4807 21.8429 42.8379 22.2343 42.8864L26.5821 43.4293C26.6121 43.4329 26.6421 43.435 26.6714 43.435C27.0264 43.435 27.3343 43.1707 27.3793 42.8093C27.4279 42.4186 27.1507 42.0614 26.7593 42.0121Z" fill="black"/>
</g>
<defs>
<clipPath id="clip0_3822_3818">
<rect width="50" height="50" fill="white"/>
</clipPath>
</defs>
</svg>
