<svg width="50" height="50" viewBox="0 0 50 50" fill="none" xmlns="http://www.w3.org/2000/svg">
<path d="M33.8593 21.9427C33.8645 22.1563 33.6927 22.3385 33.4739 22.3385L31.1354 22.375H31.1302C30.9166 22.375 30.7448 22.2031 30.7396 21.9896C30.7343 21.776 30.9062 21.599 31.125 21.5938L33.4635 21.5573C33.677 21.5521 33.8541 21.724 33.8593 21.9427ZM18.1875 21.7865L15.8489 21.8229C15.6354 21.8281 15.4635 22.0052 15.4635 22.2188C15.4687 22.4323 15.6406 22.6042 15.8541 22.6042H15.8593L18.1979 22.5677C18.4114 22.5625 18.5833 22.3854 18.5833 22.1719C18.5781 21.9583 18.4062 21.7865 18.1927 21.7865H18.1875ZM33.7604 19.1406C33.6875 19.0573 33.5781 19.0104 33.4635 19.0104C32.5364 19.0208 31.6041 19.0313 30.6666 19.0417C30.4531 19.0417 30.276 19.2188 30.2812 19.4375C30.2812 19.651 30.4583 19.8229 30.6718 19.8229H30.6771C31.4791 19.8125 32.276 19.8073 33.0677 19.7969C33.0677 19.8333 33.0729 19.8698 33.0729 19.9063C33.0833 20.0521 33.0885 20.1875 33.0729 20.3177C33.0468 20.5313 33.2031 20.724 33.4166 20.75C33.4323 20.75 33.4479 20.7552 33.4635 20.7552C33.6562 20.7552 33.8281 20.6094 33.8489 20.4115C33.875 20.2083 33.8593 20.026 33.8489 19.8594C33.8385 19.7135 33.8333 19.5781 33.8489 19.4479C33.8698 19.3333 33.8333 19.224 33.7604 19.1406ZM18.6875 19.9635C18.901 19.9635 19.0781 19.7865 19.0729 19.5677C19.0729 19.3542 18.8958 19.1823 18.6823 19.1823H18.6771H18.5833C17.6666 19.1927 16.7552 19.2031 15.8489 19.2135C15.6354 19.2135 15.4635 19.3906 15.4635 19.6042V20.599C15.4635 20.8125 15.6406 20.9896 15.8541 20.9896C16.0677 20.9896 16.2448 20.8125 16.2448 20.599V19.9896C17.026 19.9792 17.8073 19.974 18.5937 19.9635H18.6875ZM33.4687 16.2604C31.4375 16.2708 29.4218 16.2917 27.7239 16.3073C27.5104 16.3073 27.3333 16.4844 27.3385 16.7031C27.3385 16.9167 27.5156 17.0885 27.7291 17.0885H27.7343C29.3281 17.0729 31.1979 17.0573 33.0937 17.0417C33.0937 17.1146 33.0885 17.1927 33.0833 17.2656C33.0729 17.4844 33.0573 17.7083 33.0833 17.9635C33.1041 18.1667 33.2708 18.3177 33.4739 18.3177C33.4843 18.3177 33.5 18.3177 33.5104 18.3177C33.7239 18.2969 33.8802 18.1042 33.8593 17.8906C33.8385 17.6979 33.8489 17.5104 33.8593 17.3125C33.8698 17.0938 33.8854 16.8698 33.8593 16.6146C33.8385 16.4115 33.6666 16.2604 33.4687 16.2604ZM21.3541 16.375C19.3177 16.3958 17.5156 16.4115 15.8541 16.4219C15.6406 16.4219 15.4687 16.5938 15.4635 16.8073C15.4635 16.974 15.4635 17.1354 15.4635 17.3021C15.4635 17.4479 15.4635 17.599 15.4635 17.7448C15.4635 17.9583 15.6354 18.1354 15.8541 18.1354C16.0677 18.1354 16.2448 17.9635 16.2448 17.7448C16.2448 17.5938 16.2448 17.4427 16.2448 17.2969C16.2448 17.2656 16.2448 17.2292 16.2448 17.1979C17.8021 17.1875 19.4791 17.1719 21.3593 17.1563C21.5729 17.1563 21.75 16.9792 21.7448 16.7604C21.7448 16.5417 21.5677 16.3698 21.3541 16.375ZM15.4635 15.1042C15.4843 15.3177 15.6718 15.4792 15.8906 15.4583C16.1041 15.4375 16.2656 15.25 16.2448 15.0313C16.2291 14.8438 16.2343 14.651 16.2448 14.4427C16.25 14.3542 16.2552 14.2604 16.2552 14.1719C22.4843 14.1354 27 14.1354 33.0833 14.1354C33.0833 14.2292 33.0781 14.3281 33.0781 14.4271C33.0729 14.6667 33.0677 14.9115 33.0781 15.1458C33.0885 15.3542 33.2604 15.5156 33.4687 15.5156C33.4739 15.5156 33.4843 15.5156 33.4895 15.5156C33.7031 15.5052 33.8698 15.3229 33.8593 15.1042C33.8489 14.8958 33.8541 14.6771 33.8593 14.4427C33.8645 14.2031 33.8698 13.9583 33.8593 13.724C33.8489 13.5156 33.677 13.3542 33.4687 13.3542C27.0573 13.3542 22.4218 13.3542 15.8541 13.3906C15.7448 13.3906 15.6406 13.4375 15.5677 13.5208C15.4948 13.6042 15.4583 13.7083 15.4687 13.8177C15.4843 14.0052 15.4791 14.1979 15.4687 14.4063C15.4531 14.6302 15.4427 14.8594 15.4635 15.1042ZM29.8958 24.8698C29.8958 25.0833 30.0729 25.2604 30.2864 25.2604C31.4531 25.2552 32.4895 25.25 33.4635 25.25C33.5729 25.25 33.6718 25.2031 33.75 25.125C33.8281 25.0469 33.8593 24.9427 33.8541 24.8333C33.8437 24.6823 33.8489 24.5 33.8541 24.3177C33.8593 24.1198 33.8645 23.9167 33.8541 23.7344C33.8385 23.5208 33.6562 23.3542 33.4427 23.3698C33.2291 23.3854 33.0625 23.5677 33.0781 23.7813C33.0885 23.9323 33.0833 24.1146 33.0781 24.2969C33.0781 24.3542 33.0729 24.4115 33.0729 24.4688C32.2135 24.4688 31.2968 24.474 30.2864 24.4792C30.0677 24.4792 29.8958 24.6563 29.8958 24.8698ZM15.4635 24.9792C15.4635 25.0833 15.5052 25.1823 15.5781 25.2552C15.651 25.3281 15.75 25.3698 15.8541 25.3698C16.8333 25.3698 17.8593 25.3646 18.9062 25.3594C19.1198 25.3594 19.2968 25.1823 19.2968 24.9688C19.2968 24.7552 19.1198 24.5781 18.9062 24.5781C18.9062 24.5781 18.9062 24.5781 18.901 24.5781C17.9948 24.5833 17.1041 24.5885 16.2448 24.5885V23.9896C16.2448 23.776 16.0677 23.599 15.8541 23.599C15.6406 23.599 15.4635 23.776 15.4635 23.9896V24.9792ZM26.8906 27.7083C26.8906 27.9219 27.0677 28.0938 27.2812 28.0938H27.2864C29.5729 28.0677 31.4843 28.0104 33.4895 27.9063C33.5989 27.901 33.6979 27.849 33.7656 27.7708C33.8333 27.6927 33.8698 27.5833 33.8541 27.474C33.8385 27.349 33.8489 27.224 33.8541 27.0885C33.8645 26.9323 33.875 26.7604 33.8541 26.5677C33.8281 26.3542 33.6354 26.1979 33.4218 26.224C33.2083 26.25 33.052 26.4427 33.0781 26.6563C33.0937 26.7813 33.0833 26.9063 33.0781 27.0417C33.0781 27.0729 33.0729 27.1094 33.0729 27.1458C31.2135 27.2344 29.4114 27.2865 27.276 27.3125C27.0573 27.3125 26.8854 27.4896 26.8906 27.7083ZM15.4635 27.8646C15.4739 28.0729 15.6458 28.2344 15.8541 28.2344C15.8593 28.2344 15.8646 28.2344 15.8646 28.2344C17.75 28.1771 19.5625 28.1458 21.7343 28.1302C21.9479 28.1302 22.125 27.9531 22.1198 27.7344C22.1198 27.5208 21.9427 27.349 21.7291 27.349C21.7291 27.349 21.7291 27.349 21.7239 27.349C19.6979 27.3646 17.9843 27.3906 16.2343 27.4427C16.2343 27.3958 16.2343 27.3438 16.2396 27.2969C16.2448 27.1094 16.25 26.9115 16.2396 26.7135C16.2291 26.5 16.0416 26.3333 15.8281 26.3438C15.6146 26.3542 15.4479 26.5365 15.4583 26.7552C15.4687 26.9219 15.4635 27.0938 15.4583 27.276C15.4583 27.4635 15.4531 27.6615 15.4635 27.8646ZM33.8541 29.4375C33.8229 29.224 33.625 29.0781 33.4114 29.1094C33.1979 29.1406 33.0521 29.3385 33.0833 29.5521C33.0989 29.6667 33.0885 29.8438 33.0781 30.0104C33.0729 30.0677 33.0729 30.125 33.0677 30.1875C30.2291 30.2292 27.4427 30.2708 24.6562 30.3125C21.8698 30.3542 19.0781 30.3958 16.2396 30.4375C16.2396 30.3698 16.2448 30.3021 16.2448 30.2292C16.25 30.0208 16.2552 29.8073 16.2448 29.5885C16.2343 29.375 16.0521 29.2083 15.8385 29.2188C15.625 29.2292 15.4583 29.4115 15.4687 29.625C15.4791 29.8177 15.4739 30.0104 15.4687 30.2135C15.4635 30.4219 15.4583 30.6354 15.4687 30.8542C15.4791 31.0625 15.651 31.224 15.8593 31.224H15.8646C18.8385 31.1823 21.7552 31.1354 24.6718 31.0938C27.5885 31.0521 30.5052 31.0052 33.4791 30.9635C33.5937 30.9635 33.6979 30.9115 33.7708 30.8281C33.8437 30.7448 33.875 30.6302 33.8593 30.5208C33.8437 30.4063 33.8541 30.2292 33.8646 30.0625C33.8698 29.8438 33.8854 29.6302 33.8541 29.4375ZM5.55726 24.2344C5.0156 23.5 4.90622 22.599 4.91143 21.9688V21.8958C4.91664 21.3125 4.92185 20.4375 5.63539 19.724C5.65622 19.7031 5.68226 19.6823 5.7083 19.6667C5.92185 19.5365 6.40101 19.5052 9.56247 19.5052C9.79685 19.5052 10.0208 19.5052 10.2448 19.5052C10.25 18.8802 10.2552 18.276 10.2656 17.6615C10.276 16.9583 10.2812 16.2292 10.2864 15.4479C10.3021 13.5625 11.0312 12.5729 11.4635 12.1458C12.3541 11.276 14.0312 11.25 14.9323 11.2344C18.8593 11.1719 22.8541 11.1927 26.7187 11.2135C30.0468 11.2292 33.4687 11.25 36.8645 11.2135C36.8645 11.2135 36.8646 11.2135 36.8698 11.2135C36.8698 11.2135 36.8698 11.2135 36.875 11.2135C37.4166 11.2083 37.9531 11.2031 38.4948 11.1927C39.8698 11.1719 41.7552 11.1406 43.1354 12.1771C44.9739 13.5625 45.1562 16.0833 45.0833 18.599C45.0364 20.0938 45.0468 21.3177 45.0573 22.5052C45.0677 23.6979 45.0781 24.9271 45.0312 26.4375C44.9687 28.5833 44.75 30.9844 43.0208 32.3385C41.75 33.3281 39.9948 33.3229 38.4427 33.3125C38.3385 33.3125 38.2343 33.3125 38.1302 33.3125C38.552 33.5365 38.9687 33.7448 39.3854 33.9479C40.2916 34.3906 41.151 34.8125 41.7968 35.3385C41.8906 35.4167 41.9427 35.526 41.9375 35.6458C41.927 36.151 41.9375 36.4844 41.9427 36.8125C41.9479 37.1458 41.9583 37.4896 41.9479 38.0052C41.9427 38.2083 41.7812 38.3802 41.5781 38.3906C34.901 38.75 29.9427 38.7188 25.151 38.6875C21.2343 38.6615 17.5312 38.6406 13.0521 38.8177C13.0468 38.8177 13.0416 38.8177 13.0364 38.8177C12.9375 38.8177 12.8437 38.7813 12.7708 38.7135C12.6927 38.6406 12.651 38.5417 12.6458 38.4375C12.6354 38.0208 12.6302 37.6615 12.6198 37.3021C12.6093 36.9427 12.6041 36.5781 12.5937 36.1615C12.5885 36.026 12.6562 35.901 12.7708 35.8281C13.6666 35.2344 14.7864 34.6771 15.8646 34.1354C16.3854 33.875 16.9218 33.6094 17.4271 33.3385C16.625 33.3073 15.8125 33.2708 14.9843 33.224C14.2812 33.1875 13.4843 33.1406 12.7708 32.7865C11.6302 32.2188 10.9375 31.3385 10.5937 30.0208C10.2968 28.8802 10.2864 27.5469 10.276 26.0104C10.276 25.6875 10.2708 25.3542 10.2656 25.0208C10.2604 24.8229 10.2604 24.6302 10.2604 24.4427C9.85934 24.4375 9.4531 24.4375 9.02601 24.4375C7.96351 24.4323 6.86976 24.4271 5.85935 24.3958C5.73955 24.3854 5.63018 24.3281 5.55726 24.2344ZM39.0625 32.5313C40.3541 32.526 41.625 32.4323 42.5312 31.7188C44 30.5729 44.1823 28.3802 44.2448 26.4115C44.2916 24.9167 44.2812 23.6927 44.2708 22.5052C44.2604 21.3125 44.25 20.0833 44.2968 18.5729C44.3645 16.2656 44.2187 13.974 42.6614 12.8021C41.6823 12.0625 40.401 11.9583 38.9479 11.9688C38.7552 18.7917 38.7968 25.7083 39.0625 32.5313ZM37.1093 32.5313C37.3593 32.5313 37.6093 32.526 37.8593 32.526C38 32.526 38.1406 32.526 38.2812 32.526C38.0156 25.7083 37.9739 18.7969 38.1614 11.974C37.8593 11.9792 37.5573 11.9844 37.2552 11.9844L37.25 12.3958C37.2031 19.1094 37.1562 25.8229 37.1093 32.5313ZM36.5989 33.3177C34.7031 33.3333 32.9166 33.3594 31.177 33.3802C28.7135 33.4167 26.3958 33.4479 24.0937 33.4479C22.375 33.4479 20.6666 33.4323 18.9166 33.3802C18.0989 33.8802 17.1354 34.3646 16.2083 34.8281C15.2239 35.3229 14.2031 35.8281 13.375 36.3542C13.3802 36.6823 13.3906 36.9792 13.3958 37.276C13.401 37.5156 13.4062 37.7604 13.4114 38.0156C17.7291 37.849 21.3385 37.875 25.151 37.901C29.8437 37.9323 34.6927 37.9635 41.1614 37.625C41.1614 37.3125 41.1562 37.0625 41.151 36.8229C41.1458 36.5365 41.1406 36.2396 41.1458 35.8229C40.5833 35.401 39.8281 35.0313 39.0312 34.6406C38.2708 34.2708 37.4114 33.849 36.5989 33.3177ZM11.0364 24.0521C11.0364 24.0573 11.0364 24.0573 11.0364 24.0521C11.0416 24.3594 11.0416 24.6719 11.0468 25C11.0521 25.3385 11.0521 25.6771 11.0573 26C11.0729 28.9427 11.0885 31.0677 13.1146 32.0833C13.6823 32.3646 14.3646 32.4063 15.0208 32.4375C20.651 32.7448 25.5208 32.6771 31.1666 32.599C32.8229 32.5781 34.526 32.5521 36.3281 32.5365C36.375 25.8229 36.4218 19.1042 36.4687 12.3906L36.4739 11.9948C33.2031 12.026 29.9166 12.0052 26.7135 11.9896C22.8541 11.9688 18.8646 11.9479 14.9479 12.0104C14.1562 12.0208 12.6823 12.0469 12.0156 12.6979C11.4271 13.276 11.0833 14.276 11.0729 15.4479C11.0677 16.2292 11.0573 16.9583 11.0521 17.6615C11.0416 18.401 11.0364 19.125 11.0312 19.8854V19.8906V19.8958C11.0156 21.1198 11.0156 22.4375 11.0364 24.0521ZM5.69268 21.974C5.68747 22.4375 5.75518 23.0833 6.0833 23.6146C7.02601 23.6406 8.04164 23.6458 9.02601 23.651C9.43226 23.651 9.84372 23.6563 10.25 23.6563C10.2396 22.3802 10.2396 21.2969 10.2448 20.2865C10.026 20.2865 9.79684 20.2865 9.56768 20.2865C8.35414 20.2865 6.55726 20.2813 6.12497 20.349C5.7031 20.8229 5.69789 21.3958 5.69789 21.901L5.69268 21.974ZM26.6041 17.224C26.2396 19.1875 26.0833 20.099 26.0156 20.5208C26.5625 20.5417 26.9427 20.5313 27.4323 20.5208C27.6458 20.5156 27.8906 20.5104 28.1771 20.5052C28.4583 20.5 28.7135 20.6615 28.8385 20.9167C28.9583 21.1719 28.9218 21.4688 28.7396 21.6875C26.8333 23.9583 25.6198 25.375 23.875 27.2813C23.7343 27.4375 23.5416 27.5156 23.3489 27.5156C23.2187 27.5156 23.0833 27.4792 22.9635 27.4063C22.6666 27.2188 22.5468 26.8594 22.6771 26.5313C22.901 25.9635 23.1146 25.4115 23.3125 24.8802C23.5573 24.2292 23.7968 23.6042 24.0208 23.0625C23.6354 23.0573 23.3125 23.0677 22.9791 23.0781C22.7604 23.0833 22.5416 23.0885 22.2968 23.0938C22.026 23.0938 21.776 22.9479 21.651 22.7083C21.526 22.4688 21.5468 22.1823 21.7031 21.9583C22.6406 20.6406 24.3593 18.0938 25.2968 16.6927C25.4896 16.4063 25.8437 16.2969 26.1666 16.4271C26.4896 16.5573 26.6666 16.8854 26.6041 17.224ZM25.5625 21.2813C25.4479 21.276 25.3437 21.2188 25.276 21.1302C25.1562 20.9792 25.1771 20.8438 25.2396 20.4427C25.2708 20.224 25.3229 19.9115 25.3958 19.5156C25.4948 18.9583 25.625 18.2396 25.7812 17.3802C24.8385 18.7813 23.3177 21.0417 22.4166 22.3125C22.6093 22.3073 22.7864 22.3021 22.9635 22.2969C23.25 22.2865 23.5468 22.2813 23.8906 22.2813C24.1146 22.2813 24.3541 22.2865 24.6302 22.2917C24.7604 22.2969 24.8802 22.3646 24.9479 22.474C25.0156 22.5833 25.026 22.724 24.9739 22.8385C24.6875 23.474 24.3802 24.2917 24.0521 25.1563C23.8854 25.5938 23.7135 26.0417 23.5364 26.5052C25.125 24.7552 26.2968 23.3906 28.0625 21.2865C27.8385 21.2917 27.6354 21.2969 27.4583 21.2969C26.8281 21.3177 26.3802 21.3281 25.5625 21.2813Z" fill="#222222"/>
</svg>
