<svg width="51" height="51" viewBox="0 0 51 51" fill="none" xmlns="http://www.w3.org/2000/svg">
<path d="M47.175 19.125H44.625C43.9208 19.125 43.35 19.6958 43.35 20.4V30.6C43.35 31.3042 43.9208 31.875 44.625 31.875H47.175C47.8791 31.875 48.45 31.3042 48.45 30.6V20.4C48.45 19.6958 47.8791 19.125 47.175 19.125Z" fill="black"/>
<path d="M10.2 19.125H17.85V31.875H10.2V19.125Z" fill="black"/>
<path d="M19.125 19.125H26.775V31.875H19.125V19.125Z" fill="black"/>
<path d="M28.05 19.125H35.7V31.875H28.05V19.125Z" fill="black"/>
<path fill-rule="evenodd" clip-rule="evenodd" d="M35.7 11.475H10.2C5.97508 11.475 2.55005 14.9 2.55005 19.125V31.875C2.55005 36.1001 5.97508 39.525 10.2 39.525H35.7C39.9251 39.525 43.35 36.1001 43.35 31.875V19.125C43.35 14.9 39.9251 11.475 35.7 11.475ZM7.65005 19.125C7.65005 17.7167 8.79173 16.575 10.2 16.575H35.7C37.1084 16.575 38.25 17.7167 38.25 19.125V31.875C38.25 33.2834 37.1084 34.425 35.7 34.425H10.2C8.79173 34.425 7.65005 33.2834 7.65005 31.875V19.125Z" fill="black"/>
</svg>
