<svg width="50" height="50" viewBox="0 0 50 50" fill="none" xmlns="http://www.w3.org/2000/svg">
<path d="M40 32V44H11V32" fill="#222222"/>
<path d="M38 32V42H13V32" fill="white"/>
<path d="M24.2188 32.1875V39.875C24.2188 40.2148 24.0838 40.5407 23.8435 40.781C23.6032 41.0213 23.2773 41.1562 22.9375 41.1562C22.5977 41.1562 22.2718 41.0213 22.0315 40.781C21.7912 40.5407 21.6562 40.2148 21.6562 39.875V32.1875" fill="#222222"/>
<path d="M19.0938 32.1875V39.875C19.0938 40.2148 18.9588 40.5407 18.7185 40.781C18.4782 41.0213 18.1523 41.1562 17.8125 41.1562C17.4727 41.1562 17.1468 41.0213 16.9065 40.781C16.6662 40.5407 16.5312 40.2148 16.5312 39.875V32.1875" fill="#222222"/>
<path d="M34.4688 32.1875V39.875C34.4688 40.2148 34.3338 40.5407 34.0935 40.781C33.8532 41.0213 33.5273 41.1562 33.1875 41.1562C32.8477 41.1562 32.5218 41.0213 32.2815 40.781C32.0412 40.5407 31.9062 40.2148 31.9062 39.875V32.1875" fill="#222222"/>
<path d="M29.3438 32.1875V39.875C29.3438 40.2148 29.2088 40.5407 28.9685 40.781C28.7282 41.0213 28.4023 41.1562 28.0625 41.1562C27.7227 41.1562 27.3968 41.0213 27.1565 40.781C26.9162 40.5407 26.7812 40.2148 26.7812 39.875V32.1875" fill="#222222"/>
<path d="M42.1562 5.28125H8.84375C8.13614 5.28125 7.5625 5.85489 7.5625 6.5625V30.9062C7.5625 31.6139 8.13614 32.1875 8.84375 32.1875H42.1562C42.8639 32.1875 43.4375 31.6139 43.4375 30.9062V6.5625C43.4375 5.85489 42.8639 5.28125 42.1562 5.28125Z" fill="#222222"/>
<path d="M40.875 7.84375H10.125V29.625H40.875V7.84375Z" fill="white"/>
<path d="M38.3125 16.1719H12.6875V21.2969H38.3125V16.1719Z" fill="white"/>
<path d="M38.3125 15.5312H12.6875C12.5176 15.5312 12.3547 15.5987 12.2345 15.7189C12.1144 15.839 12.0469 16.002 12.0469 16.1719V21.2969C12.0469 21.4668 12.1144 21.6297 12.2345 21.7499C12.3547 21.87 12.5176 21.9375 12.6875 21.9375H38.3125C38.4824 21.9375 38.6454 21.87 38.7655 21.7499C38.8856 21.6297 38.9531 21.4668 38.9531 21.2969V16.1719C38.9531 16.002 38.8856 15.839 38.7655 15.7189C38.6454 15.5987 38.4824 15.5312 38.3125 15.5312ZM23.5781 16.8125H27.4219V20.6562H23.5781V16.8125ZM22.2969 20.6562H18.4531V16.8125H22.2969V20.6562ZM28.7031 16.8125H32.5469V20.6562H28.7031V16.8125ZM13.3281 16.8125H17.1719V20.6562H13.3281V16.8125ZM37.6719 20.6562H33.8281V16.8125H37.6719V20.6562Z" fill="#222222"/>
<path d="M15.8906 17.4531H14.6094V20.0156H15.8906V17.4531Z" fill="#222222"/>
<path d="M21.0156 17.4531H19.7344V20.0156H21.0156V17.4531Z" fill="#222222"/>
<path d="M26.1406 17.4531H24.8594V20.0156H26.1406V17.4531Z" fill="#222222"/>
<path d="M31.2656 17.4531H29.9844V20.0156H31.2656V17.4531Z" fill="#222222"/>
<path d="M36.3906 17.4531H35.1094V20.0156H36.3906V17.4531Z" fill="#222222"/>
<path d="M15.8906 9.76562H12.0469V11.0469H15.8906V9.76562Z" fill="#222222"/>
<path d="M21.0156 9.76562H17.1719V11.0469H21.0156V9.76562Z" fill="#222222"/>
<path d="M26.1406 9.76562H22.2969V11.0469H26.1406V9.76562Z" fill="#222222"/>
<path d="M31.2656 9.76562H27.4219V11.0469H31.2656V9.76562Z" fill="#222222"/>
<path d="M38.3125 10.4062H33.1875V12.9688H38.3125V10.4062Z" fill="#222222"/>
<path d="M14.6094 12.3281H13.3281V13.6094H14.6094V12.3281Z" fill="#222222"/>
<path d="M19.7344 12.3281H18.4531V13.6094H19.7344V12.3281Z" fill="#222222"/>
<path d="M24.8594 12.3281H23.5781V13.6094H24.8594V12.3281Z" fill="#222222"/>
<path d="M29.9844 12.3281H28.7031V13.6094H29.9844V12.3281Z" fill="#222222"/>
<path d="M13.9688 27.0625C14.6764 27.0625 15.25 26.4889 15.25 25.7812C15.25 25.0736 14.6764 24.5 13.9688 24.5C13.2611 24.5 12.6875 25.0736 12.6875 25.7812C12.6875 26.4889 13.2611 27.0625 13.9688 27.0625Z" fill="white"/>
<path d="M19.0938 27.0625C19.8014 27.0625 20.375 26.4889 20.375 25.7812C20.375 25.0736 19.8014 24.5 19.0938 24.5C18.3861 24.5 17.8125 25.0736 17.8125 25.7812C17.8125 26.4889 18.3861 27.0625 19.0938 27.0625Z" fill="white"/>
<path d="M24.2188 27.0625C24.9264 27.0625 25.5 26.4889 25.5 25.7812C25.5 25.0736 24.9264 24.5 24.2188 24.5C23.5111 24.5 22.9375 25.0736 22.9375 25.7812C22.9375 26.4889 23.5111 27.0625 24.2188 27.0625Z" fill="white"/>
<path d="M29.3438 27.0625C30.0514 27.0625 30.625 26.4889 30.625 25.7812C30.625 25.0736 30.0514 24.5 29.3438 24.5C28.6361 24.5 28.0625 25.0736 28.0625 25.7812C28.0625 26.4889 28.6361 27.0625 29.3438 27.0625Z" fill="white"/>
<path d="M13.9688 27.7031C13.5886 27.7031 13.2171 27.5904 12.901 27.3792C12.585 27.1681 12.3386 26.8679 12.1932 26.5167C12.0477 26.1655 12.0096 25.7791 12.0838 25.4063C12.158 25.0335 12.341 24.6911 12.6098 24.4223C12.8786 24.1535 13.221 23.9705 13.5938 23.8963C13.9666 23.8221 14.353 23.8602 14.7042 24.0057C15.0554 24.1511 15.3556 24.3975 15.5667 24.7135C15.7779 25.0296 15.8906 25.4011 15.8906 25.7813C15.8906 26.291 15.6881 26.7798 15.3277 27.1402C14.9673 27.5006 14.4785 27.7031 13.9688 27.7031ZM13.9688 25.1406C13.842 25.1406 13.7182 25.1782 13.6128 25.2486C13.5075 25.319 13.4254 25.419 13.3769 25.5361C13.3284 25.6532 13.3157 25.782 13.3404 25.9062C13.3652 26.0305 13.4262 26.1446 13.5158 26.2342C13.6054 26.3238 13.7195 26.3848 13.8438 26.4096C13.968 26.4343 14.0968 26.4216 14.2139 26.3731C14.331 26.3246 14.431 26.2425 14.5014 26.1372C14.5718 26.0318 14.6094 25.908 14.6094 25.7813C14.6094 25.6113 14.5419 25.4484 14.4217 25.3283C14.3016 25.2081 14.1387 25.1406 13.9688 25.1406Z" fill="#222222"/>
<path d="M19.0938 27.7031C18.7136 27.7031 18.3421 27.5904 18.026 27.3792C17.71 27.1681 17.4636 26.8679 17.3182 26.5167C17.1727 26.1655 17.1346 25.7791 17.2088 25.4063C17.283 25.0335 17.466 24.6911 17.7348 24.4223C18.0036 24.1535 18.346 23.9705 18.7188 23.8963C19.0916 23.8221 19.478 23.8602 19.8292 24.0057C20.1804 24.1511 20.4806 24.3975 20.6917 24.7135C20.9029 25.0296 21.0156 25.4011 21.0156 25.7813C21.0156 26.291 20.8131 26.7798 20.4527 27.1402C20.0923 27.5006 19.6035 27.7031 19.0938 27.7031ZM19.0938 25.1406C18.967 25.1406 18.8432 25.1782 18.7378 25.2486C18.6325 25.319 18.5504 25.419 18.5019 25.5361C18.4534 25.6532 18.4407 25.782 18.4654 25.9062C18.4902 26.0305 18.5512 26.1446 18.6408 26.2342C18.7304 26.3238 18.8445 26.3848 18.9688 26.4096C19.093 26.4343 19.2218 26.4216 19.3389 26.3731C19.456 26.3246 19.556 26.2425 19.6264 26.1372C19.6968 26.0318 19.7344 25.908 19.7344 25.7813C19.7344 25.6113 19.6669 25.4484 19.5467 25.3283C19.4266 25.2081 19.2637 25.1406 19.0938 25.1406Z" fill="#222222"/>
<path d="M24.2188 27.7031C23.8386 27.7031 23.4671 27.5904 23.151 27.3792C22.835 27.1681 22.5886 26.8679 22.4432 26.5167C22.2977 26.1655 22.2596 25.7791 22.3338 25.4063C22.408 25.0335 22.591 24.6911 22.8598 24.4223C23.1286 24.1535 23.471 23.9705 23.8438 23.8963C24.2166 23.8221 24.603 23.8602 24.9542 24.0057C25.3054 24.1511 25.6056 24.3975 25.8167 24.7135C26.0279 25.0296 26.1406 25.4011 26.1406 25.7813C26.1406 26.291 25.9381 26.7798 25.5777 27.1402C25.2173 27.5006 24.7285 27.7031 24.2188 27.7031ZM24.2188 25.1406C24.092 25.1406 23.9682 25.1782 23.8628 25.2486C23.7575 25.319 23.6754 25.419 23.6269 25.5361C23.5784 25.6532 23.5657 25.782 23.5904 25.9062C23.6152 26.0305 23.6762 26.1446 23.7658 26.2342C23.8554 26.3238 23.9695 26.3848 24.0938 26.4096C24.218 26.4343 24.3468 26.4216 24.4639 26.3731C24.581 26.3246 24.681 26.2425 24.7514 26.1372C24.8218 26.0318 24.8594 25.908 24.8594 25.7813C24.8594 25.6113 24.7919 25.4484 24.6717 25.3283C24.5516 25.2081 24.3887 25.1406 24.2188 25.1406Z" fill="#222222"/>
<path d="M29.3438 27.7031C28.9636 27.7031 28.5921 27.5904 28.276 27.3792C27.96 27.1681 27.7136 26.8679 27.5682 26.5167C27.4227 26.1655 27.3846 25.7791 27.4588 25.4063C27.533 25.0335 27.716 24.6911 27.9848 24.4223C28.2536 24.1535 28.596 23.9705 28.9688 23.8963C29.3416 23.8221 29.728 23.8602 30.0792 24.0057C30.4304 24.1511 30.7306 24.3975 30.9417 24.7135C31.1529 25.0296 31.2656 25.4011 31.2656 25.7813C31.2656 26.291 31.0631 26.7798 30.7027 27.1402C30.3423 27.5006 29.8535 27.7031 29.3438 27.7031ZM29.3438 25.1406C29.217 25.1406 29.0932 25.1782 28.9878 25.2486C28.8825 25.319 28.8004 25.419 28.7519 25.5361C28.7034 25.6532 28.6907 25.782 28.7154 25.9062C28.7402 26.0305 28.8012 26.1446 28.8908 26.2342C28.9804 26.3238 29.0945 26.3848 29.2188 26.4096C29.343 26.4343 29.4718 26.4216 29.5889 26.3731C29.706 26.3246 29.806 26.2425 29.8764 26.1372C29.9468 26.0318 29.9844 25.908 29.9844 25.7813C29.9844 25.6113 29.9169 25.4484 29.7967 25.3283C29.6766 25.2081 29.5137 25.1406 29.3438 25.1406Z" fill="#222222"/>
<path d="M38.3124 27.9081L37.0953 27.4981L37.422 26.4219H36.3906C36.2889 26.4214 36.1889 26.3968 36.0986 26.35C36.0084 26.3032 35.9306 26.2356 35.8717 26.1528C35.8121 26.0707 35.773 25.9756 35.7574 25.8753C35.7418 25.7751 35.7502 25.6726 35.782 25.5762L36.4226 23.6544L37.6398 24.0644L37.281 25.1406H38.3124C38.4141 25.1411 38.5141 25.1657 38.6044 25.2125C38.6946 25.2593 38.7724 25.3269 38.8314 25.4097C38.8909 25.4918 38.9301 25.5869 38.9457 25.6872C38.9612 25.7874 38.9528 25.8899 38.921 25.9862L38.3124 27.9081Z" fill="#222222"/>
<path d="M35.75 34.75H15.25C14.5424 34.75 13.9688 35.3236 13.9688 36.0312C13.9688 36.7389 14.5424 37.3125 15.25 37.3125H35.75C36.4576 37.3125 37.0312 36.7389 37.0312 36.0312C37.0312 35.3236 36.4576 34.75 35.75 34.75Z" fill="#222222"/>
</svg>
