<svg width="28" height="28" viewBox="0 0 28 28" fill="none" xmlns="http://www.w3.org/2000/svg">
<g clip-path="url(#clip0_3825_3931)">
<path d="M23.1428 17.4674C23.2177 17.1119 23.5667 16.8845 23.9221 16.9594C24.2317 17.0248 24.4444 17.298 24.4444 17.6024C24.4444 17.6474 24.4397 17.693 24.4301 17.7388C23.6213 21.5751 20.6198 24.5766 16.7834 25.3852C16.4279 25.4601 16.079 25.2327 16.0041 24.8772C15.9293 24.522 16.1566 24.1729 16.512 24.0979C19.8387 23.3968 22.4414 20.7941 23.1428 17.4674ZM14.7291 15.0255C14.3658 15.0255 14.0714 15.32 14.0714 15.6833L14.0714 15.6856C14.0714 16.0489 14.3658 16.3422 14.7291 16.3422C15.0924 16.3422 15.3869 16.0466 15.3869 15.6833C15.3869 15.32 15.0924 15.0255 14.7291 15.0255ZM1.61309 2.81747e-06L9.62324 2.46734e-06C9.98655 2.45146e-06 10.281 0.294463 10.281 0.65777C10.281 1.02108 9.98655 1.31554 9.62324 1.31554L8.82303 1.31554L8.82303 11.5149L12.6857 13.7449C13.0548 13.3563 13.5334 13.0723 14.0714 12.9433L14.0714 9.77852L10.9386 9.77852C10.5753 9.77852 10.2809 9.48406 10.2809 9.12076C10.2809 8.75745 10.5753 8.46299 10.9386 8.46299L14.7097 8.46299C14.7162 8.46284 14.7227 8.4627 14.7293 8.4627C16.8895 8.4627 18.8311 9.41602 20.1556 10.9241C20.1719 10.9395 20.1875 10.9559 20.2024 10.9731C20.7153 11.5684 21.1234 12.2389 21.4158 12.9559C21.7571 13.7891 21.947 14.6998 21.9509 15.6536C21.9511 15.655 21.9509 15.6563 21.9509 15.6576C21.9509 15.6594 21.9509 15.6609 21.951 15.6625C21.951 15.6644 21.951 15.6661 21.951 15.6677C21.9509 15.6696 21.9509 15.6715 21.951 15.6731C21.951 15.675 21.951 15.6769 21.951 15.6787C21.951 15.6807 21.9505 15.6845 21.951 15.6844C21.951 16.9831 21.6062 18.2033 21.0035 19.2575C20.9972 19.2701 20.9905 19.2827 20.9834 19.295C20.9759 19.3081 20.9679 19.3208 20.9596 19.3332C19.7038 21.4692 17.3812 22.9061 14.7293 22.9061C12.0775 22.9061 9.75487 21.4692 8.49904 19.3331C8.49078 19.3208 8.48274 19.308 8.47529 19.295C8.46813 19.2826 8.46147 19.2701 8.45519 19.2575C7.85238 18.2031 7.50771 16.9833 7.50771 15.6841C7.50771 15.6316 7.51385 15.5804 7.52554 15.5314C7.51385 15.4824 7.50771 15.4313 7.50771 15.3788L7.50771 11.906C7.50749 11.898 7.50749 11.8899 7.50771 11.8819L7.50771 1.31539L3.72898 1.31539L3.72898 15.3789C3.72898 15.4313 3.72284 15.4823 3.7113 15.5311C3.72284 15.58 3.72898 15.631 3.72898 15.6834C3.72898 21.7498 8.66363 26.6845 14.7291 26.6845C20.7946 26.6845 25.7293 21.7498 25.7293 15.6843C25.7293 11.4499 23.2539 7.54409 19.4229 5.73362C19.3587 5.70321 19.3017 5.66389 19.2527 5.6177C17.8845 4.99801 16.3681 4.65042 14.7725 4.64421C14.767 4.64435 14.7616 4.64443 14.756 4.64443L10.9386 4.64443C10.5752 4.64443 10.2808 4.34997 10.2808 3.98666C10.2808 3.62335 10.5752 3.32889 10.9386 3.32889L14.7096 3.32889C14.7161 3.32874 14.7226 3.3286 14.7292 3.3286C21.5201 3.3286 27.0449 8.85341 27.0449 15.6443C27.0449 15.6576 27.0449 15.6709 27.0449 15.6843C27.0447 22.4752 21.52 28 14.7291 28C7.93826 28 2.41345 22.4752 2.41345 15.6843C2.41345 15.6317 2.41959 15.5805 2.43128 15.5316C2.41959 15.4825 2.41345 15.4315 2.41345 15.3789L2.41345 1.31554L1.61309 1.31554C1.24978 1.31554 0.955321 1.02108 0.955321 0.65777C0.955321 0.294463 1.24978 2.83335e-06 1.61309 2.81747e-06ZM14.0714 21.5542L14.0714 18.4255C13.5333 18.2963 13.0547 18.0125 12.6856 17.6236L9.97683 19.1874C10.9306 20.4779 12.3963 21.3679 14.0714 21.5542ZM19.4814 19.1876L16.7727 17.6237C16.4035 18.0125 15.9249 18.2964 15.3869 18.4255L15.3869 21.5543C17.0622 21.3679 18.5277 20.4781 19.4814 19.1876ZM20.1409 13.3193L17.4318 14.8833C17.5072 15.1373 17.5477 15.4061 17.5477 15.6842C17.5477 15.9623 17.5072 16.2311 17.4318 16.4851L20.141 18.0492C20.4588 17.3247 20.6353 16.5247 20.6353 15.6842C20.6353 15.6827 20.6353 15.6812 20.6353 15.6796L20.6353 15.6794C20.6353 15.6775 20.6353 15.676 20.6353 15.6742C20.6353 15.6727 20.6353 15.6707 20.6353 15.6694C20.6353 15.6677 20.6352 15.6662 20.6353 15.6644C20.6351 15.6631 20.6352 15.6613 20.6352 15.6598C20.6352 15.6593 20.6352 15.6591 20.6352 15.6585C20.6319 14.9093 20.4863 14.1737 20.2122 13.4889C20.1893 13.4318 20.1655 13.3755 20.1409 13.3193ZM16.2321 15.6843C16.2321 14.8555 15.5578 14.1813 14.7291 14.1813C13.9004 14.1813 13.2261 14.8555 13.2261 15.6843C13.2261 16.5131 13.9004 17.1874 14.7291 17.1874C15.5578 17.1874 16.2321 16.5131 16.2321 15.6843ZM16.7726 13.7449L19.4813 12.1811C18.5277 10.8908 17.0619 10.0009 15.387 9.81463L15.387 12.9433C15.9249 13.0723 16.4035 13.3563 16.7726 13.7449ZM8.82295 13.034L8.82295 15.3789C8.82295 15.4313 8.81681 15.4823 8.80527 15.5311C8.81681 15.58 8.82295 15.631 8.82295 15.6834C8.82295 16.5242 8.99946 17.3246 9.31738 18.0493L12.0264 16.4853C11.951 16.2312 11.9105 15.9625 11.9105 15.6843C11.9105 15.4062 11.951 15.1374 12.0264 14.8835L8.82295 13.034Z" fill="black"/>
</g>
<defs>
<clipPath id="clip0_3825_3931">
<rect width="28" height="28" fill="white" transform="translate(0 28) rotate(-90)"/>
</clipPath>
</defs>
</svg>
