<svg width="50" height="50" viewBox="0 0 50 50" fill="none" xmlns="http://www.w3.org/2000/svg">
<g clip-path="url(#clip0_3822_3900)">
<path d="M38.2813 46.875C36.7728 46.9617 35.2701 46.6261 33.9417 45.9061C32.6134 45.1861 31.512 44.11 30.7613 42.7988C30.0106 41.4875 29.6402 39.9929 29.6917 38.4829C29.7433 36.9728 30.2148 35.507 31.0532 34.25L36.7032 25.8409C36.8771 25.5822 37.1121 25.3701 37.3873 25.2235C37.6625 25.0769 37.9695 25.0003 38.2813 25.0003C38.5931 25.0003 38.9002 25.0769 39.1754 25.2235C39.4506 25.3701 39.6855 25.5822 39.8594 25.8409L45.4063 34.0866C46.3237 35.444 46.8334 37.0356 46.8751 38.6734C46.8193 40.8994 45.8836 43.0125 44.2728 44.5498C42.6619 46.0871 40.5074 46.9232 38.2813 46.875ZM38.2813 29.0937L33.6944 35.9175C33.1546 36.7021 32.8495 37.6243 32.8148 38.576C32.7801 39.5278 33.0173 40.4697 33.4986 41.2915C33.9799 42.1134 34.6853 42.7811 35.5323 43.2165C36.3794 43.6519 37.3329 43.8369 38.2813 43.75C39.6787 43.7984 41.0385 43.2915 42.0633 42.3402C43.0881 41.3889 43.6945 40.0706 43.7501 38.6734C43.7138 37.6258 43.3716 36.6117 42.7657 35.7562L38.2813 29.0937Z" fill="black"/>
<path d="M17.1875 25V17.1875H18.75C20.407 17.1856 21.9957 16.5266 23.1674 15.3549C24.3391 14.1832 24.9981 12.5945 25 10.9375V6.25H20.3125C18.7126 6.25256 17.1754 6.87193 16.0206 7.97922C15.2114 6.51019 14.023 5.285 12.5794 4.43126C11.1358 3.57751 9.48968 3.12643 7.8125 3.125H3.125V7.8125C3.12773 10.2981 4.11633 12.681 5.87389 14.4386C7.63145 16.1962 10.0144 17.1848 12.5 17.1875H14.0625V25H3.125V28.125H25V25H17.1875ZM20.3125 9.375H21.875V10.9375C21.8742 11.766 21.5447 12.5604 20.9588 13.1463C20.3729 13.7322 19.5785 14.0617 18.75 14.0625H17.1875V12.5C17.1883 11.6715 17.5178 10.8771 18.1037 10.2912C18.6896 9.70533 19.484 9.37583 20.3125 9.375ZM12.5 14.0625C10.843 14.0606 9.25434 13.4016 8.08264 12.2299C6.91094 11.0582 6.25186 9.46953 6.25 7.8125V6.25H7.8125C9.46953 6.25186 11.0582 6.91094 12.2299 8.08264C13.4016 9.25434 14.0606 10.843 14.0625 12.5V14.0625H12.5Z" fill="black"/>
<path d="M25 32.8125H3.125V35.9375H25V32.8125Z" fill="black"/>
<path d="M25 40.625H3.125V43.75H25V40.625Z" fill="black"/>
</g>
<defs>
<clipPath id="clip0_3822_3900">
<rect width="50" height="50" fill="white"/>
</clipPath>
</defs>
</svg>
