<svg version="1.1" id="Layer_1" xmlns="http://www.w3.org/2000/svg" xmlns:xlink="http://www.w3.org/1999/xlink" x="0px" y="0px" viewBox="0 0 512 512" style="enable-background:new 0 0 512 512;" xml:space="preserve" transform="matrix(6.123233995736766e-17,1,-1,6.123233995736766e-17,0,0)">
<g>
	<g>
		<g>
			<path d="M340.751,254.733h-64.749l5.845-101.708c1.001-17.406-22.203-24.486-31.06-9.421l-93.93,159.732
				c-6.532,11.109,1.489,25.159,14.392,25.159h64.749l-5.845,101.708c-1.005,17.48,22.222,24.455,31.06,9.421l93.93-159.732
				C361.675,268.783,353.653,254.733,340.751,254.733z M267.453,363.139l2.896-50.382c0.55-9.581-7.08-17.653-16.669-17.653h-53.246
				l44.112-75.014l-2.896,50.382c-0.55,9.581,7.08,17.653,16.669,17.653h53.246L267.453,363.139z"></path>
			<path d="M385.501,71.229h-62.742V16.696c0-9.22-7.475-16.696-16.696-16.696H205.937c-9.22,0-16.696,7.475-16.696,16.696v54.534
				h-62.742c-9.22,0-16.696,7.475-16.696,16.696v407.379c0,9.22,7.475,16.696,16.696,16.696h259.002
				c9.22,0,16.696-7.475,16.696-16.696V87.925C402.197,78.704,394.721,71.229,385.501,71.229z M222.632,33.391h66.735v37.838
				h-66.735V33.391z M143.194,478.609V104.621c7.911,0,214.217,0,225.611,0v373.988H143.194z"></path>
		</g>
	</g>
</g>
</svg>