<svg width="32" height="32" viewBox="0 0 32 32" fill="none" xmlns="http://www.w3.org/2000/svg">
<path d="M16 15.1467C15.4726 15.1467 14.957 14.9903 14.5185 14.6973C14.0799 14.4042 13.7381 13.9878 13.5363 13.5005C13.3345 13.0132 13.2817 12.477 13.3846 11.9598C13.4874 11.4425 13.7414 10.9673 14.1144 10.5944C14.4873 10.2214 14.9625 9.96747 15.4797 9.86457C15.997 9.76168 16.5332 9.81449 17.0205 10.0163C17.5077 10.2182 17.9242 10.5599 18.2172 10.9985C18.5103 11.437 18.6666 11.9526 18.6666 12.48C18.6666 13.1872 18.3857 13.8655 17.8856 14.3656C17.3855 14.8657 16.7072 15.1467 16 15.1467Z" fill="#231F20"/>
<path d="M16 29.3333C15.6464 29.3333 15.3073 29.1929 15.0572 28.9428C14.8072 28.6928 14.6667 28.3536 14.6667 28V15.1467C14.6667 14.793 14.8072 14.4539 15.0572 14.2039C15.3073 13.9538 15.6464 13.8133 16 13.8133C16.3536 13.8133 16.6928 13.9538 16.9428 14.2039C17.1929 14.4539 17.3334 14.793 17.3334 15.1467V28C17.3334 28.3536 17.1929 28.6928 16.9428 28.9428C16.6928 29.1929 16.3536 29.3333 16 29.3333Z" fill="#231F20"/>
<path d="M20.72 18.5333C20.4552 18.5349 20.1959 18.4575 19.9752 18.3111C19.7545 18.1647 19.5824 17.9559 19.4808 17.7113C19.3793 17.4667 19.3529 17.1974 19.405 16.9378C19.457 16.6781 19.5853 16.4398 19.7733 16.2533C20.7707 15.2535 21.3309 13.8989 21.3309 12.4867C21.3309 11.0744 20.7707 9.71982 19.7733 8.72C19.6484 8.59605 19.5492 8.44858 19.4815 8.2861C19.4138 8.12362 19.3789 7.94935 19.3789 7.77333C19.3789 7.59732 19.4138 7.42304 19.4815 7.26057C19.5492 7.09809 19.6484 6.95062 19.7733 6.82667C20.0231 6.57833 20.3611 6.43894 20.7133 6.43894C21.0656 6.43894 21.4035 6.57833 21.6533 6.82667C22.3971 7.56965 22.9872 8.45196 23.3898 9.42314C23.7924 10.3943 23.9996 11.4353 23.9996 12.4867C23.9996 13.538 23.7924 14.579 23.3898 15.5502C22.9872 16.5214 22.3971 17.4037 21.6533 18.1467C21.405 18.393 21.0698 18.5319 20.72 18.5333Z" fill="#231F20"/>
<path d="M11.28 18.5333C10.9302 18.5319 10.595 18.393 10.3467 18.1467C9.60285 17.4037 9.01278 16.5214 8.61018 15.5502C8.20759 14.579 8.00037 13.538 8.00037 12.4867C8.00037 11.4353 8.20759 10.3943 8.61018 9.42314C9.01278 8.45196 9.60285 7.56965 10.3467 6.82667C10.5965 6.57833 10.9344 6.43894 11.2867 6.43894C11.6389 6.43894 11.9768 6.57833 12.2267 6.82667C12.3516 6.95062 12.4508 7.09809 12.5185 7.26057C12.5862 7.42304 12.6211 7.59732 12.6211 7.77333C12.6211 7.94935 12.5862 8.12362 12.5185 8.2861C12.4508 8.44858 12.3516 8.59605 12.2267 8.72C11.2293 9.71982 10.6691 11.0744 10.6691 12.4867C10.6691 13.8989 11.2293 15.2535 12.2267 16.2533C12.4147 16.4398 12.5429 16.6781 12.595 16.9378C12.6471 17.1974 12.6207 17.4667 12.5192 17.7113C12.4176 17.9559 12.2455 18.1647 12.0248 18.3111C11.8041 18.4575 11.5448 18.5349 11.28 18.5333Z" fill="#231F20"/>
<path d="M24.48 22.3067C24.2163 22.3056 23.9589 22.2263 23.7402 22.0789C23.5216 21.9315 23.3516 21.7225 23.2517 21.4785C23.1518 21.2344 23.1265 20.9662 23.179 20.7078C23.2315 20.4494 23.3595 20.2124 23.5467 20.0267C25.5456 18.0265 26.6684 15.3144 26.6684 12.4867C26.6684 9.6589 25.5456 6.94685 23.5467 4.94667C23.4217 4.82272 23.3225 4.67525 23.2548 4.51277C23.1871 4.35029 23.1523 4.17602 23.1523 4C23.1523 3.82398 23.1871 3.64971 23.2548 3.48723C23.3225 3.32475 23.4217 3.17728 23.5467 3.05333C23.7965 2.805 24.1344 2.66561 24.4867 2.66561C24.8389 2.66561 25.1769 2.805 25.4267 3.05333C26.6664 4.29164 27.6498 5.76215 28.3208 7.38079C28.9918 8.99944 29.3372 10.7345 29.3372 12.4867C29.3372 14.2389 28.9918 15.9739 28.3208 17.5925C27.6498 19.2112 26.6664 20.6817 25.4267 21.92C25.3021 22.0436 25.1544 22.1413 24.9919 22.2077C24.8295 22.274 24.6555 22.3077 24.48 22.3067Z" fill="#231F20"/>
<path d="M7.52 22.3067C7.34452 22.3077 7.17057 22.274 7.00812 22.2077C6.84567 22.1413 6.69792 22.0436 6.57333 21.92C5.33364 20.6817 4.35019 19.2112 3.6792 17.5925C3.00821 15.9739 2.66284 14.2389 2.66284 12.4867C2.66284 10.7345 3.00821 8.99944 3.6792 7.38079C4.35019 5.76215 5.33364 4.29164 6.57333 3.05333C6.82315 2.805 7.16108 2.66561 7.51333 2.66561C7.86558 2.66561 8.20351 2.805 8.45333 3.05333C8.5783 3.17728 8.67749 3.32475 8.74519 3.48723C8.81288 3.64971 8.84773 3.82398 8.84773 4C8.84773 4.17602 8.81288 4.35029 8.74519 4.51277C8.67749 4.67525 8.5783 4.82272 8.45333 4.94667C6.46259 6.94576 5.34491 9.65209 5.34491 12.4733C5.34491 15.2946 6.46259 18.0009 8.45333 20C8.64056 20.1857 8.76852 20.4227 8.82103 20.6812C8.87355 20.9396 8.84826 21.2078 8.74835 21.4518C8.64845 21.6958 8.47843 21.9048 8.25979 22.0522C8.04114 22.1996 7.78369 22.2789 7.52 22.28V22.3067Z" fill="#231F20"/>
</svg>
